<svg id="SvgjsSvg1001" width="288" height="288" xmlns="http://www.w3.org/2000/svg" version="1.1" xmlns:xlink="http://www.w3.org/1999/xlink" xmlns:svgjs="http://svgjs.com/svgjs"><defs id="SvgjsDefs1002"></defs><g id="SvgjsG1008"><svg xmlns="http://www.w3.org/2000/svg" viewBox="0 0 1000 1000" width="288" height="288"><rect width="100%" height="100%" fill="rgba(255,255,255,0)" class="colorrgba2552552550 svgShape"></rect><g transform="translate(499.995 383.911) scale(.7299)" fill="#000000" class="color000 svgShape"><path style="is-custom-font:none;font-file-url:none" fill="#000000" d="m 180 210.57 c -59.552 0 -108 -48.449 -108 -108 c 0 -59.552 48.45 -108 108 -108 s 108 48.449 108 108 c 0 59.55 -48.45 108 -108 108 z m 0 -205.15 c -53.57 0 -97.15 43.582 -97.15 97.152 c 0 53.568 43.582 97.15 97.151 97.15 c 53.57 0 97.15 -43.582 97.15 -97.15 c 0 -53.57 -43.58 -97.152 -97.15 -97.152 z" transform="translate(-180 -162.82)" visibility="hidden" class="color0bb4b6 svgShape"></path><path style="is-custom-font:none;font-file-url:none" fill="#000000" d="m 69.954 325.64 h -0.003 c -21.064 -0.002 -41.773 -3.641 -61.549 -10.817 l -8.402 -3.05 l 1.56 -8.803 c 10.75 -60.646 51.99 -111.82 108.54 -135.48 c -7.784 -60.802 15.912 -122.1 63.057 -161.74 l 6.84 -5.75 l 6.844 5.752 c 47.144 39.633 70.843 100.94 63.056 161.74 c 56.551 23.661 97.793 74.831 108.54 135.48 l 1.562 8.801 l -8.402 3.051 c -19.778 7.179 -40.486 10.817 -61.552 10.817 c -39.83 0 -78.572 -13.107 -110.05 -37.078 c -31.48 23.97 -70.22 37.08 -110.05 37.08 z m -45.597 -27.93 c 14.78 4.426 30.077 6.662 45.594 6.664 c 33.656 0 66.429 -10.598 93.535 -30.049 c -11.896 -11.58 -22.138 -24.758 -30.541 -39.312 c -8.403 -14.553 -14.695 -30.016 -18.776 -46.107 c -45.014 20.36 -78.384 60.7 -89.813 108.81 z m 172.15 -23.39 c 27.104 19.451 59.874 30.047 93.532 30.047 c 15.517 0 30.813 -2.236 45.595 -6.662 c -11.43 -48.105 -44.802 -88.45 -89.814 -108.8 c -4.079 16.092 -10.371 31.553 -18.773 46.105 c -8.41 14.55 -18.65 27.72 -30.55 39.3 z m -62.28 -92.9 c 3.574 15.012 9.319 29.426 17.133 42.962 c 7.813 13.533 17.423 25.717 28.638 36.318 c 11.211 -10.602 20.821 -22.785 28.638 -36.318 c 7.813 -13.534 13.561 -27.95 17.133 -42.96 c -14.786 -4.411 -30.145 -6.641 -45.771 -6.641 c -15.63 0 -30.99 2.23 -45.77 6.64 z m 45.77 -27.9 c 16.806 0 33.34 2.28 49.317 6.792 c 4.88 -49.16 -13.374 -98.229 -49.319 -132.18 c -35.946 33.951 -54.197 83.021 -49.315 132.18 c 15.98 -4.51 32.51 -6.79 49.32 -6.79 z" transform="translate(-180 -162.82)" class="color0bb4b6 svgShape"></path><circle style="is-custom-font:none;font-file-url:none" r="80.25" fill="#000000" stroke="#000000" stroke-miterlimit="10" stroke-width="5" transform="translate(0 -.24)" visibility="hidden" class="color0bb4b6 svgShape colorStroke0bb4b6 svgStroke"></circle></g><g fill="#000000" class="color000 svgShape"><path font-family="Abril Fatface" font-size="151" style="is-custom-font:none;font-file-url:none;white-space:pre" d="M-334.84-55.40L-310.23 16.93L-297.70-26.55L-306.76-55.40L-315.36-55.40L-315.36-58.26L-268.55-58.26L-268.55-55.40L-277.46-55.40L-254.96 16.03L-236.84-55.40L-252.09-55.40L-252.09-58.26L-221.89-58.26L-221.89-55.40L-231.86-55.40L-259.64 48.95L-273.08 48.95L-295.43-19.31L-315.06 48.95L-328.20 48.95L-366.25-55.40L-373.35-55.40L-373.35-58.26L-324.27-58.26L-324.27-55.40L-334.84-55.40ZM-217.21-55.40L-217.21-58.26L-171.16-58.26L-171.16-55.40L-179.46-55.40L-179.46 44.57L-171.16 44.57L-171.16 47.44L-217.21 47.44L-217.21 44.57L-208.91 44.57L-208.91-55.40L-217.21-55.40ZM-69.99-55.40L-78.29-55.40L-78.29 47.44L-99.43 47.44L-151.23-50.26L-151.23 44.57L-142.92 44.57L-142.92 47.44L-163.61 47.44L-163.61 44.57L-155.30 44.57L-155.30-55.40L-163.61-55.40L-163.61-58.26L-121.93-58.26L-82.37 17.54L-82.37-55.40L-90.68-55.40L-90.68-58.26L-69.99-58.26L-69.99-55.40ZM-8.83 45.93L-8.83 45.93Q-1.43 45.93 0.60 43.21Q2.64 40.49 2.64 34.00L2.64 34.00L2.64 4.70L-7.02 4.70L-7.02 1.38L36.47 1.38L36.47 4.70L30.58 4.70L30.58 47.28L28.31 47.28Q25.59 43.51 20.61 43.51L20.61 43.51Q18.50 43.51 8.00 46.23Q-2.49 48.95-9.89 48.95L-9.89 48.95Q-34.50 48.95-48.02 35.66Q-61.53 22.37-61.53-4.28Q-61.53-30.93-47.41-45.43Q-33.30-59.93-9.44-59.93L-9.44-59.93Q-0.23-59.93 9.06-57.59Q18.35-55.24 19.86-55.24Q21.37-55.24 22.12-55.92Q22.88-56.60 23.78-58.26L23.78-58.26L25.44-58.26L26.65-25.50L23.93-25.50Q16.53-40.14 9.06-48.53Q1.59-56.91-7.63-56.91L-7.63-56.91Q-30.73-56.91-30.73-11.76L-30.73-11.76L-30.73 0.17Q-30.73 22.82-25.07 34.37Q-19.40 45.93-8.83 45.93ZM106.08 19.50L124.20-58.26L164.51-58.26L164.51-55.40L156.21-55.40L156.21 44.57L164.51 44.57L164.51 47.44L118.46 47.44L118.46 44.57L126.76 44.57L126.76-49.81L126.16-49.81L103.51 47.44L84.64 47.44L58.06-50.26L57.46-50.26L57.46 44.57L65.76 44.57L65.76 47.44L45.22 47.44L45.22 44.57L53.53 44.57L53.53-55.40L45.22-55.40L45.22-58.26L85.99-58.26L106.08 19.50ZM222.80 44.57L233.52 44.57L222.50 11.95L192.60 11.95L180.97 44.57L192.30 44.57L192.30 47.44L169.20 47.44L169.20 44.57L176.29 44.57L214.80-59.17L227.18-59.17L265.23 44.57L272.18 44.57L272.18 47.44L222.80 47.44L222.80 44.57ZM221.29 8.63L208.15-30.93L193.96 8.63L221.29 8.63ZM370.48-55.40L362.17-55.40L362.17 47.44L341.03 47.44L289.24-50.26L289.24 44.57L297.55 44.57L297.55 47.44L276.86 47.44L276.86 44.57L285.16 44.57L285.16-55.40L276.86-55.40L276.86-58.26L318.53-58.26L358.10 17.54L358.10-55.40L349.79-55.40L349.79-58.26L370.48-58.26L370.48-55.40Z" transform="translate(499.5 637.436)" fill="#000000" class="color000 svgShape"></path></g><g fill="#000000" class="color000 svgShape"><path font-family="ABeeZee" font-size="30" style="is-custom-font:none;font-file-url:none;white-space:pre" d="M-186 0.99L-186-11.58L-183.24-11.58L-183.24 1.32Q-183.24 3.30-183.80 4.88Q-184.35 6.45-185.38 7.55Q-186.42 8.64-187.86 9.21Q-189.30 9.78-191.07 9.78L-191.07 9.78Q-194.73 9.78-196.78 7.64Q-198.84 5.49-198.84 1.44L-198.84 1.44L-198.84-11.58L-195.99-11.58L-195.99 0.99Q-195.99 4.02-194.78 5.66Q-193.56 7.29-191.07 7.29L-191.07 7.29Q-188.52 7.29-187.26 5.69Q-186 4.08-186 0.99L-186 0.99ZM-166.26 9.42L-175.59-7.92L-175.59 9.42L-178.29 9.42L-178.29-11.58L-174.51-11.58L-165.24 5.88L-165.24-11.58L-162.54-11.58L-162.54 9.42L-166.26 9.42ZM-140.37 9.42L-140.37-7.95L-145.98 4.68L-148.80 4.68L-154.44-7.95L-154.44 9.42L-157.14 9.42L-157.14-11.58L-153.15-11.58L-147.33 1.71L-141.60-11.58L-137.52-11.58L-137.52 9.42L-140.37 9.42ZM-132.09 9.66L-134.52 8.67L-126.30-11.58L-123.18-11.58L-115.08 8.67L-117.69 9.72L-120.03 3.72L-129.75 3.72L-132.09 9.66ZM-124.89-8.76L-128.85 1.32L-120.96 1.32L-124.89-8.76ZM-100.05 9.42L-109.38-7.92L-109.38 9.42L-112.08 9.42L-112.08-11.58L-108.30-11.58L-99.03 5.88L-99.03-11.58L-96.33-11.58L-96.33 9.42L-100.05 9.42ZM-78.90 9.42L-88.23-7.92L-88.23 9.42L-90.93 9.42L-90.93-11.58L-87.15-11.58L-77.88 5.88L-77.88-11.58L-75.18-11.58L-75.18 9.42L-78.90 9.42ZM-69.78 9.42L-69.78-11.58L-57.18-11.58L-57.18-9.12L-66.93-9.12L-66.93-2.73L-58.53-2.73L-58.53-0.33L-66.93-0.33L-66.93 6.96L-57.18 6.96L-57.18 9.42L-69.78 9.42ZM-53.13 9.36L-53.13-11.52Q-51.72-11.67-50.37-11.74Q-49.02-11.82-47.28-11.82L-47.28-11.82Q-44.58-11.82-42.63-10.98Q-40.68-10.14-39.39-8.67Q-38.10-7.20-37.48-5.25Q-36.87-3.30-36.87-1.11L-36.87-1.11Q-36.87 1.08-37.50 3.05Q-38.13 5.01-39.43 6.48Q-40.74 7.95-42.76 8.81Q-44.79 9.66-47.61 9.66L-47.61 9.66Q-49.32 9.66-50.59 9.59Q-51.87 9.51-53.13 9.36L-53.13 9.36ZM-47.37-9.36L-47.37-9.36Q-48.24-9.36-48.96-9.31Q-49.68-9.27-50.28-9.21L-50.28-9.21L-50.28 7.02Q-49.65 7.11-48.96 7.14Q-48.27 7.17-47.52 7.17L-47.52 7.17Q-45.51 7.17-44.04 6.56Q-42.57 5.94-41.62 4.85Q-40.68 3.75-40.23 2.24Q-39.78 0.72-39.78-1.11L-39.78-1.11Q-39.78-2.73-40.23-4.21Q-40.68-5.70-41.61-6.85Q-42.54-8.01-43.98-8.68Q-45.42-9.36-47.37-9.36ZM-20.22 9.42L-25.92-10.89L-23.10-11.79L-18.36 6.39L-13.89-9.39L-10.32-9.39L-5.88 6.39L-1.17-11.70L1.47-10.89L-4.20 9.42L-7.74 9.42L-12.18-6.36L-16.68 9.42L-20.22 9.42ZM7.47 9.42L4.62 9.42L4.62-11.58L7.47-11.58L7.47 9.42ZM10.47-9.06L10.47-11.58L26.22-11.58L26.22-9.06L19.77-9.06L19.77 9.42L16.92 9.42L16.92-9.06L10.47-9.06ZM42.42 9.42L42.42-0.15L32.07-0.15L32.07 9.42L29.22 9.42L29.22-11.58L32.07-11.58L32.07-2.61L42.42-2.61L42.42-11.58L45.27-11.58L45.27 9.42L42.42 9.42ZM63.12 9.42L57.42-10.89L60.24-11.79L64.98 6.39L69.45-9.39L73.02-9.39L77.46 6.39L82.17-11.70L84.81-10.89L79.14 9.42L75.60 9.42L71.16-6.36L66.66 9.42L63.12 9.42ZM90.81 9.42L87.96 9.42L87.96-11.58L90.81-11.58L90.81 9.42ZM108.24 9.42L98.91-7.92L98.91 9.42L96.21 9.42L96.21-11.58L99.99-11.58L109.26 5.88L109.26-11.58L111.96-11.58L111.96 9.42L108.24 9.42ZM125.88 0.54L125.88-1.71L132.93-1.71L132.93 9.42L130.41 9.42L130.41 7.32Q129.36 8.25 127.86 9.02Q126.36 9.78 124.53 9.78L124.53 9.78Q122.70 9.78 121.17 9.06Q119.64 8.34 118.53 6.99Q117.42 5.64 116.79 3.74Q116.16 1.83 116.16-0.54L116.16-0.54Q116.16-3.06 116.80-5.14Q117.45-7.23 118.68-8.74Q119.91-10.26 121.69-11.10Q123.48-11.94 125.76-11.94L125.76-11.94Q127.74-11.94 129.25-11.46Q130.77-10.98 132.12-10.23L132.12-10.23L131.07-7.86Q129.81-8.55 128.52-9.00Q127.23-9.45 125.61-9.45L125.61-9.45Q124.20-9.45 123-8.88Q121.80-8.31 120.93-7.20Q120.06-6.09 119.56-4.45Q119.07-2.82 119.07-0.72L119.07-0.72Q119.07 1.17 119.52 2.66Q119.97 4.14 120.78 5.18Q121.59 6.21 122.72 6.75Q123.84 7.29 125.19 7.29L125.19 7.29Q126.03 7.29 126.78 7.10Q127.53 6.90 128.16 6.59Q128.79 6.27 129.31 5.90Q129.84 5.52 130.23 5.13L130.23 5.13L130.23 0.54L125.88 0.54ZM154.35 9.42L154.35-7.95L148.74 4.68L145.92 4.68L140.28-7.95L140.28 9.42L137.58 9.42L137.58-11.58L141.57-11.58L147.39 1.71L153.12-11.58L157.20-11.58L157.20 9.42L154.35 9.42ZM162.63 9.66L160.20 8.67L168.42-11.58L171.54-11.58L179.64 8.67L177.03 9.72L174.69 3.72L164.97 3.72L162.63 9.66ZM169.83-8.76L165.87 1.32L173.76 1.32L169.83-8.76ZM194.67 9.42L185.34-7.92L185.34 9.42L182.64 9.42L182.64-11.58L186.42-11.58L195.69 5.88L195.69-11.58L198.39-11.58L198.39 9.42L194.67 9.42Z" opacity=".46" transform="translate(499.5 757.866)" fill="#000000" class="color000 svgShape"></path></g><path style="is-custom-font:none;font-file-url:none" d="M 392.11 398 a 6.07 6.07 0 0 0 0.93 -0.59 c 0.61 -0.58 60.65 -58.81 8.81 -114 c -21 -22.39 -76 -45.49 -134.13 -70 C 195.67 183.14 114 148.8 106.43 117.62 a 6.22 6.22 0 0 0 -5.89 -4.75 c -2.89 0.22 -5.33 1.78 -6.12 4.48 c -0.34 1.16 -32.86 116.9 66.68 163.12 A 107.6 107.6 0 0 0 181.27 287 c -0.76 9.89 -0.46 30.12 12.06 45.62 c 10 12.32 25.27 18.86 45.51 19.42 c 9.29 0.25 19.09 0.26 29.07 0.27 c 66.75 0.06 114 3 114.63 40.67 a 4 4 0 0 0 0.11 0.5 a 6 6 0 0 0 0.39 1.82 a 6.06 6.06 0 0 0 0.85 1.28 a 6.15 6.15 0 0 0 0.45 0.68 l 0 0 a 6.21 6.21 0 0 0 2 1.34 a 6.13 6.13 0 0 0 2.38 0.48 h 0.09 c 0.22 0 0.4 -0.11 0.61 -0.13 a 6.48 6.48 0 0 0 1.68 -0.37 A 7 7 0 0 0 392.11 398 Z M 103 137.22 c 24 30.54 90.35 58.42 159.93 87.69 c 56.91 23.93 110.66 46.54 129.88 67 c 21.41 22.81 20.16 46.14 13.15 64.15 c -1.51 -10.13 -6.54 -21.49 -17.8 -33.32 c -26.58 -27.93 -85.91 -33.72 -138.25 -38.82 c -33.74 -3.29 -65.61 -6.4 -83.55 -14.73 C 97.05 237 98.24 168.71 103 137.22 Z m 165 202.68 c -9.87 0 -19.56 0 -28.74 -0.27 c -16.4 -0.45 -28.56 -5.41 -36.13 -14.74 c -9.25 -11.41 -9.89 -26.86 -9.43 -35.33 c 16.43 2.92 35.38 4.82 55 6.73 c 50.18 4.9 107.06 10.45 130.45 35 c 17 17.88 16.4 33.84 12.67 44.36 C 377.77 340 319.82 340 267.92 339.9 Z" transform="translate(36.182 481.522) scale(.2836)" vector-effect="non-scaling-stroke" fill="#000000" class="color000 svgShape"></path></svg></g></svg>