<svg xmlns="http://www.w3.org/2000/svg" xmlns:xlink="http://www.w3.org/1999/xlink" version="1.1" width="940" height="788" viewBox="0 0 940 788" xml:space="preserve">
<desc>Created with Fabric.js 3.5.0</desc>
<defs>
</defs>
<rect x="0" y="0" width="100%" height="100%" fill="rgba(255,255,255,0)"/>
<g transform="matrix(0.9861 -0.1659 0.1659 0.9861 469.9653 249.073)" style="" id="188188">
		
<path xml:space="preserve" font-family="Pacifico" font-size="217" style="stroke: none; stroke-width: 0; stroke-dasharray: none; stroke-linecap: butt; stroke-dashoffset: 0; stroke-linejoin: miter; stroke-miterlimit: 4; is-custom-font: none; font-file-url: none; fill: rgb(48,43,38); fill-rule: nonzero; opacity: 1; white-space: pre;" d="M-314.00 69.25Q-339.82 69.25-358.92 59.81Q-378.01 50.37-388.21 33.01Q-398.41 15.65-398.41-7.35L-398.41-7.35Q-398.41-39.25-386.37-63.98Q-374.32-88.72-353.71-102.29Q-333.10-115.85-307.92-115.85L-307.92-115.85Q-284.49-115.85-272.34-103.80Q-260.18-91.76-260.18-72.01L-260.18-72.01Q-260.18-58.78-264.85-50.75Q-269.51-42.72-278.19-42.72L-278.19-42.72Q-284.27-42.72-287.74-45.54Q-291.21-48.36-291.21-53.79L-291.21-53.79Q-291.21-55.74-290.35-60.95L-290.35-60.95Q-289.04-67.46-289.04-71.36L-289.04-71.36Q-289.04-91.11-310.09-91.11L-310.09-91.11Q-324.42-91.11-337.44-81.78Q-350.46-72.45-358.48-54.33Q-366.51-36.21-366.51-11.25L-366.51-11.25Q-366.51 14.79-351.97 29.00Q-337.44 43.21-309.01 43.21L-309.01 43.21Q-294.90 43.21-280.47 39.63Q-266.04 36.05-248.47 28.67L-248.47 28.67Q-245.21 27.37-243.04 27.37L-243.04 27.37Q-239.57 27.37-237.83 29.98Q-236.10 32.58-236.10 36.70L-236.10 36.70Q-236.10 49.94-250.42 56.23L-250.42 56.23Q-265.83 62.96-282.43 66.11Q-299.03 69.25-314.00 69.25L-314.00 69.25ZM-132.59 19.78Q-129.77 19.78-128.14 22.38Q-126.51 24.99-126.51 29.54L-126.51 29.54Q-126.51 38.22-130.63 43.00L-130.63 43.00Q-140.62 54.50-151.14 61.88Q-161.66 69.25-175.12 69.25L-175.12 69.25Q-186.19 69.25-191.83 62.85Q-197.47 56.45-197.47 44.30L-197.47 44.30Q-197.47 38.22-194.43 22.60L-194.43 22.60Q-191.61 8.93-191.61 3.72L-191.61 3.72Q-191.61 0.25-194.00 0.25L-194.00 0.25Q-196.82 0.25-202.03 7.52Q-207.23 14.79-212.44 26.72Q-217.65 38.66-220.91 51.89L-220.91 51.89Q-225.03 69.25-241.30 69.25L-241.30 69.25Q-247.81 69.25-249.88 64.59Q-251.94 59.92-251.94 47.77L-251.94 47.77Q-251.94 40.83-251.72 36.70L-251.72 36.70L-251.50 19.34Q-251.50-14.07-244.67-50.31Q-237.83-86.55-224.49-111.18Q-211.14-135.81-192.48-135.81L-192.48-135.81Q-182.50-135.81-176.31-127.24Q-170.13-118.67-170.13-105.00L-170.13-105.00Q-170.13-83.08-182.93-59.54Q-195.73-35.99-224.59-4.53L-224.59-4.53Q-225.25 6.76-225.25 18.69L-225.25 18.69Q-218.08 0.25-209.30-11.36Q-200.51-22.97-191.94-27.96Q-183.37-32.95-176.20-32.95L-176.20-32.95Q-162.10-32.95-162.10-18.85L-162.10-18.85Q-162.10-10.39-166.87 11.75L-166.87 11.75Q-171.00 30.63-171.00 36.70L-171.00 36.70Q-171.00 45.38-164.70 45.38L-164.70 45.38Q-160.36 45.38-154.40 40.07Q-148.43 34.75-138.45 22.82L-138.45 22.82Q-135.84 19.78-132.59 19.78L-132.59 19.78ZM-197.04-114.33Q-200.94-114.33-205.72-103.15Q-210.49-91.98-214.94-72.99Q-219.39-54.00-222.21-31.65L-222.21-31.65Q-208.75-47.49-199.97-66.15Q-191.18-84.82-191.18-100.01L-191.18-100.01Q-191.18-106.95-192.70-110.64Q-194.21-114.33-197.04-114.33L-197.04-114.33ZM-47.31 19.78Q-44.48 19.78-42.86 22.38Q-41.23 24.99-41.23 29.54L-41.23 29.54Q-41.23 38.22-45.35 43.00L-45.35 43.00Q-53.38 52.76-68.03 61.01Q-82.68 69.25-99.39 69.25L-99.39 69.25Q-122.17 69.25-134.76 56.88Q-147.34 44.52-147.34 23.03L-147.34 23.03Q-147.34 8.06-141.05-4.85Q-134.76-17.76-123.58-25.36Q-112.41-32.95-98.30-32.95L-98.30-32.95Q-85.71-32.95-78.12-25.47Q-70.52-17.98-70.52-5.18L-70.52-5.18Q-70.52 9.80-81.27 20.54Q-92.01 31.28-117.61 37.57L-117.61 37.57Q-112.19 47.55-97.00 47.55L-97.00 47.55Q-87.23 47.55-74.76 40.72Q-62.28 33.88-53.16 22.82L-53.16 22.82Q-50.56 19.78-47.31 19.78L-47.31 19.78ZM-101.99-11.69Q-110.02-11.69-115.55-2.36Q-121.09 6.97-121.09 20.21L-121.09 20.21L-121.09 20.65Q-108.28 17.61-100.91 11.53Q-93.53 5.46-93.53-2.57L-93.53-2.57Q-93.53-6.70-95.81-9.19Q-98.08-11.69-101.99-11.69L-101.99-11.69ZM-17.36 69.25Q-38.63 69.25-50.45 57.21Q-62.28 45.17-62.28 25.42L-62.28 25.42Q-62.28 7.84-55.33-5.39Q-48.39-18.63-37.32-25.79Q-26.26-32.95-14.10-32.95L-14.10-32.95Q-2.17-32.95 4.45-25.90Q11.07-18.85 11.07-7.78L11.07-7.78Q11.07 1.33 7.05 7.63Q3.04 13.92-3.47 13.92L-3.47 13.92Q-7.59 13.92-10.09 11.97Q-12.59 10.01-12.59 6.54L-12.59 6.54Q-12.59 5.02-12.15 3.07Q-11.72 1.12-11.50 0.25L-11.50 0.25Q-10.42-3.01-10.42-5.83L-10.42-5.83Q-10.42-8.65-11.83-10.17Q-13.24-11.69-15.84-11.69L-15.84-11.69Q-20.83-11.69-25.17-7.24Q-29.51-2.79-32.12 4.80Q-34.72 12.40-34.72 21.51L-34.72 21.51Q-34.72 46.69-12.80 46.69L-12.80 46.69Q-3.91 46.69 6.40 40.72Q16.71 34.75 26.69 22.82L26.69 22.82Q29.30 19.78 32.55 19.78L32.55 19.78Q35.37 19.78 37.00 22.38Q38.63 24.99 38.63 29.54L38.63 29.54Q38.63 37.79 34.50 43.00L34.50 43.00Q24.30 55.58 10.09 62.42Q-4.12 69.25-17.36 69.25L-17.36 69.25ZM146.48 19.78Q149.30 19.78 150.92 22.38Q152.55 24.99 152.55 29.54L152.55 29.54Q152.55 38.22 148.43 43.00L148.43 43.00Q138.66 54.93 128.68 62.09Q118.70 69.25 105.03 69.25L105.03 69.25Q88.32 69.25 78.12 59.71Q67.92 50.16 67.92 34.32L67.92 34.32Q67.92 25.85 76.60 22.16L76.60 22.16Q86.15 18.04 90.27 13.38Q94.40 8.71 94.40 1.98L94.40 1.98Q94.40-1.92 92.77-3.88Q91.14-5.83 88.75-5.83L88.75-5.83Q82.89-5.83 75.84 2.63Q68.79 11.10 62.71 24.44Q56.64 37.79 53.17 51.89L53.17 51.89Q50.78 62.09 47.63 65.67Q44.49 69.25 37.76 69.25L37.76 69.25Q31.03 69.25 27.88 64.37Q24.74 59.49 23.65 49.29Q22.57 39.09 22.57 19.34L22.57 19.34Q22.57-14.07 29.40-50.31Q36.24-86.55 49.58-111.18Q62.93-135.81 81.59-135.81L81.59-135.81Q91.57-135.81 97.76-127.24Q103.94-118.67 103.94-105.00L103.94-105.00Q103.94-83.08 91.14-59.54Q78.34-35.99 49.48-4.53L49.48-4.53Q48.83 6.76 48.83 18.69L48.83 18.69Q59.24-8.43 72.70-20.69Q86.15-32.95 97.87-32.95L97.87-32.95Q108.72-32.95 115.34-25.58Q121.95-18.20 121.95-7.35L121.95-7.35Q121.95 4.59 115.88 14.57Q109.80 24.55 95.05 32.36L95.05 32.36Q95.91 38.22 100.36 41.80Q104.81 45.38 111.10 45.38L111.10 45.38Q117.83 45.38 124.12 40.18Q130.42 34.97 140.62 22.82L140.62 22.82Q143.22 19.78 146.48 19.78L146.48 19.78ZM77.04-114.33Q73.13-114.33 68.36-103.15Q63.58-91.98 59.13-72.99Q54.68-54.00 51.86-31.65L51.86-31.65Q65.32-47.49 74.11-66.15Q82.89-84.82 82.89-100.01L82.89-100.01Q82.89-106.95 81.38-110.64Q79.86-114.33 77.04-114.33L77.04-114.33ZM245.64 1.55Q248.47 1.55 249.98 4.37Q251.50 7.19 251.50 11.53L251.50 11.53Q251.50 21.95 245.21 23.90L245.21 23.90Q232.19 28.46 216.57 29.11L216.57 29.11Q212.44 47.34 200.29 58.29Q188.14 69.25 172.73 69.25L172.73 69.25Q159.71 69.25 150.49 62.96Q141.27 56.67 136.49 46.25Q131.72 35.84 131.72 23.68L131.72 23.68Q131.72 7.19 138.01-5.72Q144.31-18.63 155.37-25.90Q166.44-33.17 179.89-33.17L179.89-33.17Q196.38-33.17 206.48-21.78Q216.57-10.39 218.30 6.32L218.30 6.32Q228.50 5.67 242.61 1.98L242.61 1.98Q244.34 1.55 245.64 1.55L245.64 1.55ZM174.47 46.25Q181.41 46.25 186.51 40.61Q191.61 34.97 193.35 24.33L193.35 24.33Q186.62 19.78 183.04 12.40Q179.46 5.02 179.46-3.22L179.46-3.22Q179.46-6.70 180.11-10.17L180.11-10.17L179.03-10.17Q170.34-10.17 164.59-1.81Q158.84 6.54 158.84 21.73L158.84 21.73Q158.84 33.67 163.51 39.96Q168.18 46.25 174.47 46.25L174.47 46.25ZM254.98 69.25Q245.21 69.25 239.03 60.25Q232.84 51.24 232.84 37.79L232.84 37.79Q232.84 21.51 235.01 7.95Q237.18-5.61 242.17-20.80L242.17-20.80Q244.34-27.31 248.25-30.13Q252.15-32.95 260.62-32.95L260.62-32.95Q265.39-32.95 267.24-31.43Q269.08-29.92 269.08-26.88L269.08-26.88Q269.08-25.14 266.69-15.16L266.69-15.16Q264.52-7.13 263.22-0.62L263.22-0.62Q258.88 22.16 258.88 29.76L258.88 29.76Q258.88 34.32 259.97 36.16Q261.05 38.01 263.44 38.01L263.44 38.01Q266.69 38.01 271.58 31.50Q276.46 24.99 281.99 11.75Q287.52-1.49 292.73-20.80L292.73-20.80Q294.47-27.31 298.05-30.13Q301.63-32.95 308.79-32.95L308.79-32.95Q313.78-32.95 315.74-31.76Q317.69-30.57 317.69-27.31L317.69-27.31Q317.69-21.89 312.26 2.42L312.26 2.42Q306.19 30.19 306.19 36.70L306.19 36.70Q306.19 40.83 307.92 43.10Q309.66 45.38 312.48 45.38L312.48 45.38Q316.82 45.38 322.79 40.07Q328.75 34.75 338.74 22.82L338.74 22.82Q341.34 19.78 344.60 19.78L344.60 19.78Q347.42 19.78 349.04 22.38Q350.67 24.99 350.67 29.54L350.67 29.54Q350.67 38.22 346.55 43.00L346.55 43.00Q337.22 54.50 326.48 61.88Q315.74 69.25 302.06 69.25L302.06 69.25Q291.65 69.25 286.77 61.22Q281.88 53.20 281.88 38.66L281.88 38.66Q278.19 53.41 270.82 61.33Q263.44 69.25 254.98 69.25L254.98 69.25ZM429.88 19.78Q432.70 19.78 434.33 22.38Q435.95 24.99 435.95 29.54L435.95 29.54Q435.95 38.22 431.83 43.00L431.83 43.00Q422.50 54.50 411.43 61.88Q400.37 69.25 386.04 69.25L386.04 69.25Q341.78 69.25 341.78 6.97L341.78 6.97Q341.78-2.57 342.43-12.34L342.43-12.34L333.96-12.34Q327.45-12.34 325.17-14.73Q322.90-17.11 322.90-22.32L322.90-22.32Q322.90-34.47 332.66-34.47L332.66-34.47L345.03-34.47Q348.72-58.34 356.31-78.09Q363.91-97.84 374.65-109.55Q385.39-121.27 397.76-121.27L397.76-121.27Q406.88-121.27 412.08-113.24Q417.29-105.21 417.29-93.06L417.29-93.06Q417.29-59.43 389.08-34.47L389.08-34.47L413.39-34.47Q416.86-34.47 418.38-32.95Q419.90-31.43 419.90-27.31L419.90-27.31Q419.90-12.34 395.37-12.34L395.37-12.34L368.90-12.34Q368.47-1.49 368.47 4.59L368.47 4.59Q368.47 27.16 373.78 36.27Q379.10 45.38 390.60 45.38L390.60 45.38Q399.93 45.38 407.09 39.74Q414.25 34.10 424.02 22.82L424.02 22.82Q426.62 19.78 429.88 19.78L429.88 19.78ZM391.90-100.44Q388.65-100.44 384.63-92.30Q380.62-84.17 377.04-69.74Q373.46-55.30 371.07-37.73L371.07-37.73Q383.87-48.79 390.27-62.57Q396.68-76.35 396.68-87.64L396.68-87.64Q396.68-100.44 391.90-100.44L391.90-100.44Z"/></g>
<g transform="matrix(1 0 0 1 423.1823 391.1944)" style="" id="436195">
		
<path xml:space="preserve" font-family="Abel" font-size="102" style="stroke: none; stroke-width: 0; stroke-dasharray: none; stroke-linecap: butt; stroke-dashoffset: 0; stroke-linejoin: miter; stroke-miterlimit: 4; is-custom-font: none; font-file-url: none; fill: rgb(48,43,38); fill-rule: nonzero; opacity: 1; white-space: pre;" d="M-36.13 32.04L-39.52 32.04L-69.30-19.95L-69.90-23.04L-69.90 32.04L-76.33 32.04L-76.33-39.38L-72.99-39.38L-43.21 12.67L-42.56 15.71L-42.56-39.38L-36.13-39.38L-36.13 32.04ZM11.23 18.05L11.23 18.05Q11.23 21.14 10.06 23.87Q8.89 26.61 6.85 28.66Q4.81 30.70 2.07 31.87Q-0.67 33.04-3.76 33.04L-3.76 33.04L-7.84 33.04Q-10.93 33.04-13.67 31.87Q-16.41 30.70-18.45 28.66Q-20.49 26.61-21.67 23.87Q-22.84 21.14-22.84 18.05L-22.84 18.05L-22.84-4.96Q-22.84-8.05-21.67-10.79Q-20.49-13.53-18.45-15.57Q-16.41-17.61-13.67-18.78Q-10.93-19.95-7.84-19.95L-7.84-19.95L-3.76-19.95Q-0.67-19.95 2.07-18.78Q4.81-17.61 6.85-15.57Q8.89-13.53 10.06-10.79Q11.23-8.05 11.23-4.96L11.23-4.96L11.23 18.05ZM5.10 18.40L5.10-5.31Q5.10-7.15 4.41-8.77Q3.71-10.39 2.52-11.59Q1.32-12.78-0.30-13.48Q-1.92-14.18-3.76-14.18L-3.76-14.18L-7.84-14.18Q-9.69-14.18-11.31-13.48Q-12.92-12.78-14.12-11.59Q-15.31-10.39-16.01-8.77Q-16.71-7.15-16.71-5.31L-16.71-5.31L-16.71 18.40Q-16.71 20.24-16.01 21.86Q-15.31 23.48-14.12 24.67Q-12.92 25.87-11.31 26.56Q-9.69 27.26-7.84 27.26L-7.84 27.26L-3.76 27.26Q-1.92 27.26-0.30 26.56Q1.32 25.87 2.52 24.67Q3.71 23.48 4.41 21.86Q5.10 20.24 5.10 18.40L5.10 18.40ZM83.45-18.96L66.41 32.04L63.08 32.04L51.12-6.41L50.93-9.05L50.73-6.41L38.77 32.04L35.39 32.04L18.35-18.96L24.58-18.96L36.73 19.59L36.93 22.23L37.13 19.59L49.08-18.96L52.77-18.96L64.67 19.59L64.87 22.23L65.07 19.59L77.22-18.96L83.45-18.96Z"/></g>
<g transform="matrix(4.7106 0 0 4.7106 470.0404 605.3477)" id="32495">
<path style="stroke: none; stroke-width: 0; stroke-dasharray: none; stroke-linecap: butt; stroke-dashoffset: 0; stroke-linejoin: miter; stroke-miterlimit: 4; is-custom-font: none; font-file-url: none; fill: rgb(247,147,30); fill-rule: evenodd; opacity: 1;" vector-effect="non-scaling-stroke" transform=" translate(-9.7162, -26.9714)" d="M 5.84726 35.0285 L 6.10456 35.5428 C 6.19032 35.8 6.36186 35.9714 6.36186 35.8857 C 6.36186 35.8 6.44762 35.3714 6.36186 34.9428 C 6.27609 33.4857 6.19032 31.3428 6.10456 29.2 C 6.01879 26.7143 6.01879 16.6 6.10456 14.9714 C 6.10456 14.3714 6.19033 13.2571 6.19033 12.6571 C 6.19033 11.9714 6.27609 11.1143 6.36186 10.7714 C 6.44762 9.91426 6.53339 9.48569 6.61915 8.28569 C 6.70492 6.82855 6.87645 6.22855 7.04798 6.31426 C 7.13375 6.31426 7.13375 6.31427 7.13375 6.22855 C 7.13375 6.14284 7.04798 6.14284 7.04798 6.14284 C 6.87645 6.14284 6.96222 5.19998 7.30528 3.65713 C 7.56258 2.2857 7.81987 1.59998 8.07717 1.25712 C 8.42024 0.914267 8.506 0.914264 8.506 1.42855 C 8.506 1.77141 8.506 1.7714 8.59177 1.59998 C 8.7633 1.25712 8.7633 1.59998 8.506 2.54284 C 8.42024 3.05712 8.2487 4.08569 8.2487 4.85712 C 8.07717 6.48569 7.99141 6.74284 7.90564 6.22855 C 7.81988 5.97141 7.81988 6.22855 7.73411 7.0857 C 7.64834 7.77141 7.64834 8.3714 7.56258 8.45712 C 7.47681 8.71426 7.56258 9.99997 7.64834 9.91426 C 7.73411 9.82854 7.73411 10.2571 7.73411 11.0285 C 7.73411 11.7143 7.73411 12.2286 7.81988 12.2286 C 8.16294 12.2286 8.16294 12.2285 8.07717 12.1428 C 7.99141 12.0571 7.90564 11.8 7.99141 10.8571 C 7.99141 10.1714 8.07717 9.65712 8.16294 9.57141 C 8.2487 9.48569 8.2487 9.31426 8.16294 9.14284 C 8.07717 9.05712 8.16294 8.9714 8.2487 8.88569 C 8.33447 8.79998 8.42024 8.71426 8.33447 8.71426 C 8.2487 8.71426 8.2487 8.54284 8.2487 8.28569 C 8.2487 7.94284 8.33447 7.85712 8.42024 8.02855 C 8.506 8.11426 8.59177 8.19998 8.59177 8.11427 C 8.59177 8.02855 8.506 7.94284 8.42024 7.85712 C 8.33447 7.77141 8.2487 7.68569 8.33447 7.59998 C 8.33447 7.59998 8.42024 7.08569 8.42024 6.57141 C 8.506 5.19998 8.7633 2.97141 9.0206 2.54284 C 9.10636 2.37141 9.19213 2.02855 9.27789 1.6857 C 9.36366 1.0857 9.53519 0.828552 9.70672 0.828552 C 9.87825 0.828552 9.96402 0.914261 9.96402 1.59998 C 9.96402 2.02855 10.0498 2.9714 10.0498 3.74283 C 10.0498 4.51426 10.0498 5.11427 10.1356 5.11427 C 10.1356 5.11427 10.2213 4.59998 10.2213 3.99998 C 10.2213 3.31426 10.3071 2.37141 10.3071 1.85712 L 10.3929 0.914259 H 10.7359 C 11.1647 0.914259 11.3363 1.1714 11.422 1.59998 V 1.94284 L 11.5078 1.59998 C 11.5936 1.08569 11.7651 0.999978 11.8509 1.42855 C 12.1082 2.02855 12.1939 3.65713 12.3655 7.94284 C 12.4512 10.2571 12.4512 11.0286 12.537 11.9714 C 12.6228 12.9143 12.7085 14.5428 12.7943 16.4285 C 12.7943 17.2 12.8801 18.1428 12.8801 18.5714 C 12.9658 19.6 12.9658 20.3714 13.3947 27.9143 C 13.5662 31.4285 13.7377 34.3428 13.8235 34.4286 C 13.995 34.8571 14.0808 33.9143 13.995 32.5428 C 13.9092 30.1428 13.9092 30.0571 13.8235 29.9714 C 13.7377 29.7143 13.652 28.5143 13.5662 25 C 13.5662 24.3143 13.4804 23.1143 13.4804 22.3428 C 13.4804 21.5714 13.3947 20.3714 13.3947 19.6 C 13.3947 18.8285 13.3089 18.2285 13.3089 18.1428 C 13.3089 18.0571 13.2231 17.7143 13.2231 17.2857 C 13.1374 16.6 13.2231 16.5143 13.3947 16.4285 C 13.5662 16.3428 13.652 16.3428 13.652 16.5143 C 13.652 16.6 13.7377 17.5428 13.7377 18.5714 C 13.8235 19.6 13.9093 20.8 13.9093 21.2286 C 13.9093 21.6571 13.995 22.3428 13.995 22.8571 C 13.995 23.3714 14.1665 24.7428 14.2523 25.9428 C 14.3381 27.1428 14.5096 29.1143 14.5096 30.3143 C 14.5954 31.5143 14.6811 32.6285 14.6811 32.8857 L 14.7669 33.3143 L 15.1957 33.0571 C 15.7103 32.7143 15.7961 32.7143 15.7961 33.0571 C 15.7961 33.3143 15.7961 33.3143 16.1392 32.9714 C 16.4822 32.6286 16.9111 32.5428 16.9968 32.7143 C 16.9968 32.8 17.1684 32.8 17.3399 32.6285 C 17.6829 32.4571 18.1975 32.4571 18.1975 32.7143 C 18.1975 32.8 18.2833 32.8857 18.3691 32.8 C 18.8837 32.5428 18.8837 32.5428 18.8837 32.8857 C 18.8837 33.0571 18.9694 33.1428 19.0552 33.1428 C 19.141 33.1428 19.2267 33.2285 19.141 33.3143 C 19.0552 33.4 19.0552 33.6571 19.0552 33.7428 C 19.0552 33.9143 18.9694 34.1714 18.8837 34.3428 C 18.6264 34.9428 18.026 37.6857 17.8545 39.4 C 17.7687 40.0857 17.5972 41.2857 17.5114 42.0571 C 17.3399 43.3428 16.7395 46.5143 16.3965 47.6285 C 15.7103 50.1143 15.2815 51.3143 14.9384 51.3143 C 14.8527 51.3143 14.7669 51.4 14.6811 51.4857 C 14.5096 51.7428 13.995 51.8285 13.7377 51.7428 C 13.4804 51.6571 12.9658 52 13.0516 52.2571 C 13.0516 52.3428 13.0516 52.4286 12.9658 52.4286 C 12.8801 52.4286 12.7085 52.5143 12.537 52.6 C 12.3655 52.6857 12.2797 52.6857 12.1939 52.6 C 12.1082 52.5143 12.1082 52.5143 12.1082 52.5143 C 12.1082 52.6857 11.2505 53.0286 10.7359 53.1143 C 10.3928 53.1143 10.2213 53.1143 9.96402 52.9428 C 9.79249 52.7714 9.53519 52.7714 9.36366 52.7714 C 8.59177 52.9428 7.56258 51.9143 6.19033 49.3428 C 5.93303 48.9143 5.58996 48.2286 5.33267 47.8 C 4.81807 46.9428 4.81807 46.7714 4.9896 46.8571 C 5.07537 46.8571 4.9896 46.7714 4.81807 46.6857 C 4.64654 46.5143 4.56077 46.3428 4.56077 46.2571 C 4.56077 46.1714 4.56077 46.1714 4.56077 46.1714 C 4.56077 46.1714 4.38924 46 4.30348 45.8286 C 4.21771 45.6571 4.13195 45.4857 4.04618 45.4857 C 3.96041 45.4857 3.96041 45.4 3.96041 45.3143 C 3.96041 45.2285 3.87465 45.0571 3.87465 44.9714 C 3.78888 44.8857 2.93122 43.1714 2.50239 42.2286 C 2.41663 41.9714 2.07356 41.2857 1.7305 40.6 C 1.04437 39.1428 0.358248 37.3428 0.272482 36.7428 C 0.186716 35.9714 0.444013 35.0286 0.787077 35.1143 C 0.872842 35.1143 0.958609 35.1143 0.872843 35.0285 C 0.872843 34.8571 0.872842 34.7714 1.21591 34.8571 C 1.38744 34.9428 1.55897 35.2 1.7305 35.6285 C 1.90203 36.0571 2.07356 36.3143 2.07356 36.3143 C 2.07356 36.3143 2.15933 35.8857 2.07356 35.4571 C 2.07356 34.6 2.15933 34.3428 2.58816 34.3428 C 2.84546 34.3428 2.93122 34.4285 3.18852 34.7714 L 3.53158 35.2 V 34.1714 L 4.13194 34.2571 C 4.56077 34.3428 4.73231 34.4286 4.90384 34.5143 C 5.07537 34.6857 5.07537 34.6857 5.16113 34.5143 C 5.33267 34.2571 5.5042 34.4286 5.7615 34.9428 L 5.93303 35.3714 L 5.84726 35.0285 Z M 12.8801 16.1714 C 12.8801 15.9143 12.8801 15.4857 12.7943 15.4 C 12.7943 15.2286 12.7085 14.3714 12.7085 13.4285 C 12.6228 11.9714 12.7085 11.8 12.7943 11.8 C 12.8801 11.8 12.9658 11.9714 12.9658 12.2286 C 13.0516 13.6 13.1374 15.4 13.2231 16 C 13.3089 16.3428 13.2231 16.5143 13.0516 16.6 C 12.9658 16.6857 12.9658 16.6 12.8801 16.1714 Z M 12.7085 11.2 C 12.7085 11.0285 12.6228 10.5143 12.6228 9.99998 C 12.537 9.48569 12.537 8.97141 12.6228 8.79998 C 12.7085 8.62855 12.7085 8.45712 12.6228 8.45712 C 12.537 8.45712 12.537 8.19998 12.537 7.85712 C 12.537 7.51426 12.4512 6.99998 12.4512 6.57141 C 12.4512 6.14284 12.4512 5.79998 12.537 5.71426 C 12.6228 5.62855 12.6228 5.54283 12.537 5.62854 C 12.4512 5.71426 12.3655 5.54283 12.3655 5.19997 C 12.3655 4.94283 12.3655 4.6857 12.4512 4.6857 C 12.537 4.59998 12.537 4.34283 12.4512 4.34283 C 12.3655 4.34283 12.3655 4.25712 12.3655 4.1714 C 12.3655 4.08569 12.3655 3.57141 12.2797 2.97141 C 12.1939 1.42855 12.3655 2.19998 12.6228 4.1714 C 12.7085 5.11426 12.7943 6.5714 12.8801 7.34283 C 12.8801 8.11426 12.9658 8.79998 12.9658 8.79998 C 12.9658 8.8857 13.0516 9.22855 13.0516 9.65713 C 13.0516 10.0857 13.0516 10.6 13.1374 10.9428 C 13.2231 11.3714 13.1374 11.4571 13.0516 11.4571 C 12.7943 11.5428 12.7085 11.4571 12.7085 11.2 Z M 7.81988 9.39998 C 7.81988 9.22855 7.90564 8.8857 7.90564 8.54284 L 7.99141 8.02855 V 8.71426 C 7.99141 9.05712 7.99141 9.48569 7.90564 9.57141 C 7.81988 9.65712 7.81988 9.65712 7.81988 9.39998 Z M 7.90564 7.85712 C 7.90564 7.68569 7.99141 7.51426 7.99141 7.42855 C 8.07717 7.34284 8.07717 7.34283 8.07717 7.59998 C 8.07717 8.02855 7.90564 8.19998 7.90564 7.85712 Z M 7.99141 6.91426 C 7.99141 6.82854 8.07717 6.65713 8.07717 6.65713 C 8.07717 6.65713 8.07717 6.74283 8.07717 6.91426 C 8.07717 6.99997 7.99141 7.1714 7.99141 7.1714 C 7.99141 7.1714 7.99141 7.08569 7.99141 6.91426 Z" stroke-linecap="round"/>
</g>
</svg>