<svg xmlns="http://www.w3.org/2000/svg" xmlns:xlink="http://www.w3.org/1999/xlink" version="1.1" width="1000" height="1000" viewBox="0 0 1000 1000" xml:space="preserve">
<desc>Created with Fabric.js 3.5.0</desc>
<defs>
</defs>
<rect x="0" y="0" width="100%" height="100%" fill="rgba(255,255,255,0)"/>
<g transform="matrix(0.331 0 0 0.331 725.8448 438.0751)" id="325234">
<g style="" vector-effect="non-scaling-stroke">
		<g transform="matrix(1 0 0 1 0 -60.2495)" id="564239">
<path style="stroke: none; stroke-width: 1; stroke-dasharray: none; stroke-linecap: butt; stroke-dashoffset: 0; stroke-linejoin: miter; stroke-miterlimit: 4; is-custom-font: none; font-file-url: none; fill: rgb(11,180,182); fill-rule: nonzero; opacity: 1; visibility: hidden;" transform=" translate(-180, -102.57)" d="m 180 210.57 c -59.552 0 -108 -48.449 -108 -108 c 0 -59.552 48.45 -108 108 -108 s 108 48.449 108 108 c 0 59.55 -48.45 108 -108 108 z m 0 -205.15 c -53.57 0 -97.15 43.582 -97.15 97.152 c 0 53.568 43.582 97.15 97.151 97.15 c 53.57 0 97.15 -43.582 97.15 -97.15 c 0 -53.57 -43.58 -97.152 -97.15 -97.152 z" stroke-linecap="round"/>
</g>
		<g transform="matrix(1 0 0 1 -0.0005 0.002)" id="202316">
<path style="stroke: none; stroke-width: 1; stroke-dasharray: none; stroke-linecap: butt; stroke-dashoffset: 0; stroke-linejoin: miter; stroke-miterlimit: 4; is-custom-font: none; font-file-url: none; fill: rgb(11,180,182); fill-rule: nonzero; opacity: 1;" transform=" translate(-179.9995, -162.8215)" d="m 69.954 325.64 h -0.003 c -21.064 -0.002 -41.773 -3.641 -61.549 -10.817 l -8.402 -3.05 l 1.56 -8.803 c 10.75 -60.646 51.99 -111.82 108.54 -135.48 c -7.784 -60.802 15.912 -122.1 63.057 -161.74 l 6.84 -5.75 l 6.844 5.752 c 47.144 39.633 70.843 100.94 63.056 161.74 c 56.551 23.661 97.793 74.831 108.54 135.48 l 1.562 8.801 l -8.402 3.051 c -19.778 7.179 -40.486 10.817 -61.552 10.817 c -39.83 0 -78.572 -13.107 -110.05 -37.078 c -31.48 23.97 -70.22 37.08 -110.05 37.08 z m -45.597 -27.93 c 14.78 4.426 30.077 6.662 45.594 6.664 c 33.656 0 66.429 -10.598 93.535 -30.049 c -11.896 -11.58 -22.138 -24.758 -30.541 -39.312 c -8.403 -14.553 -14.695 -30.016 -18.776 -46.107 c -45.014 20.36 -78.384 60.7 -89.813 108.81 z m 172.15 -23.39 c 27.104 19.451 59.874 30.047 93.532 30.047 c 15.517 0 30.813 -2.236 45.595 -6.662 c -11.43 -48.105 -44.802 -88.45 -89.814 -108.8 c -4.079 16.092 -10.371 31.553 -18.773 46.105 c -8.41 14.55 -18.65 27.72 -30.55 39.3 z m -62.28 -92.9 c 3.574 15.012 9.319 29.426 17.133 42.962 c 7.813 13.533 17.423 25.717 28.638 36.318 c 11.211 -10.602 20.821 -22.785 28.638 -36.318 c 7.813 -13.534 13.561 -27.95 17.133 -42.96 c -14.786 -4.411 -30.145 -6.641 -45.771 -6.641 c -15.63 0 -30.99 2.23 -45.77 6.64 z m 45.77 -27.9 c 16.806 0 33.34 2.28 49.317 6.792 c 4.88 -49.16 -13.374 -98.229 -49.319 -132.18 c -35.946 33.951 -54.197 83.021 -49.315 132.18 c 15.98 -4.51 32.51 -6.79 49.32 -6.79 z" stroke-linecap="round"/>
</g>
		<g transform="matrix(1 0 0 1 0 -0.2395)" id="968879">
<circle style="stroke: rgb(11,180,182); stroke-width: 5; stroke-dasharray: none; stroke-linecap: butt; stroke-dashoffset: 0; stroke-linejoin: miter; stroke-miterlimit: 10; is-custom-font: none; font-file-url: none; fill: rgb(11,180,182); fill-rule: nonzero; opacity: 1; visibility: hidden;" cx="0" cy="0" r="80.25"/>
</g>
</g>
</g>
<g transform="matrix(1 0 0 1 725.6277 552.7919)" style="" id="361327">
		
<path xml:space="preserve" font-family="Abril Fatface" font-size="68" font-style="normal" font-weight="normal" style="stroke: none; stroke-width: 0; stroke-dasharray: none; stroke-linecap: butt; stroke-dashoffset: 0; stroke-linejoin: miter; stroke-miterlimit: 4; is-custom-font: none; font-file-url: none; fill: rgb(0,0,0); fill-rule: nonzero; opacity: 1; white-space: pre;" d="M-150.79-24.95L-139.71 7.63L-134.06-11.96L-138.14-24.95L-142.02-24.95L-142.02-26.24L-120.94-26.24L-120.94-24.95L-124.95-24.95L-114.82 7.22L-106.66-24.95L-113.53-24.95L-113.53-26.24L-99.93-26.24L-99.93-24.95L-104.41-24.95L-116.93 22.04L-122.98 22.04L-133.04-8.69L-141.88 22.04L-147.80 22.04L-164.93-24.95L-168.13-24.95L-168.13-26.24L-146.03-26.24L-146.03-24.95L-150.79-24.95ZM-97.82-24.95L-97.82-26.24L-77.08-26.24L-77.08-24.95L-80.82-24.95L-80.82 20.07L-77.08 20.07L-77.08 21.36L-97.82 21.36L-97.82 20.07L-94.08 20.07L-94.08-24.95L-97.82-24.95ZM-31.52-24.95L-35.26-24.95L-35.26 21.36L-44.78 21.36L-68.10-22.63L-68.10 20.07L-64.36 20.07L-64.36 21.36L-73.68 21.36L-73.68 20.07L-69.94 20.07L-69.94-24.95L-73.68-24.95L-73.68-26.24L-54.91-26.24L-37.09 7.90L-37.09-24.95L-40.83-24.95L-40.83-26.24L-31.52-26.24L-31.52-24.95ZM-3.98 20.68L-3.98 20.68Q-0.65 20.68 0.27 19.46Q1.19 18.23 1.19 15.31L1.19 15.31L1.19 2.12L-3.16 2.12L-3.16 0.62L16.42 0.62L16.42 2.12L13.77 2.12L13.77 21.29L12.75 21.29Q11.53 19.59 9.28 19.59L9.28 19.59Q8.33 19.59 3.60 20.82Q-1.12 22.04-4.45 22.04L-4.45 22.04Q-15.54 22.04-21.62 16.06Q-27.71 10.07-27.71-1.93Q-27.71-13.93-21.35-20.46Q-14.99-26.99-4.25-26.99L-4.25-26.99Q-0.10-26.99 4.08-25.93Q8.26-24.88 8.94-24.88Q9.62-24.88 9.96-25.18Q10.30-25.49 10.71-26.24L10.71-26.24L11.46-26.24L12.00-11.48L10.78-11.48Q7.45-18.08 4.08-21.85Q0.71-25.63-3.43-25.63L-3.43-25.63Q-13.84-25.63-13.84-5.29L-13.84-5.29L-13.84 0.08Q-13.84 10.28-11.29 15.48Q-8.74 20.68-3.98 20.68ZM47.77 8.78L55.93-26.24L74.09-26.24L74.09-24.95L70.35-24.95L70.35 20.07L74.09 20.07L74.09 21.36L53.35 21.36L53.35 20.07L57.09 20.07L57.09-22.43L56.81-22.43L46.61 21.36L38.11 21.36L26.15-22.63L25.87-22.63L25.87 20.07L29.61 20.07L29.61 21.36L20.37 21.36L20.37 20.07L24.11 20.07L24.11-24.95L20.37-24.95L20.37-26.24L38.73-26.24L47.77 8.78ZM100.33 20.07L105.16 20.07L100.20 5.38L86.73 5.38L81.50 20.07L86.60 20.07L86.60 21.36L76.19 21.36L76.19 20.07L79.39 20.07L96.73-26.65L102.31-26.65L119.44 20.07L122.57 20.07L122.57 21.36L100.33 21.36L100.33 20.07ZM99.65 3.89L93.74-13.93L87.35 3.89L99.65 3.89ZM166.84-24.95L163.10-24.95L163.10 21.36L153.58 21.36L130.25-22.63L130.25 20.07L133.99 20.07L133.99 21.36L124.68 21.36L124.68 20.07L128.42 20.07L128.42-24.95L124.68-24.95L124.68-26.24L143.45-26.24L161.26 7.90L161.26-24.95L157.52-24.95L157.52-26.24L166.84-26.24L166.84-24.95Z"/></g>
<g transform="matrix(1 0 0 1 725.6278 607.9082)" style="" id="158801">
		
<path xml:space="preserve" font-family="ABeeZee" font-size="14" font-style="normal" font-weight="normal" style="stroke: none; stroke-width: 0; stroke-dasharray: none; stroke-linecap: butt; stroke-dashoffset: 0; stroke-linejoin: miter; stroke-miterlimit: 4; is-custom-font: none; font-file-url: none; fill: rgb(0,0,0); fill-rule: nonzero; opacity: 0.46; white-space: pre;" d="M-86.80 0.46L-86.80-5.40L-85.51-5.40L-85.51 0.62Q-85.51 1.54-85.77 2.28Q-86.03 3.01-86.51 3.52Q-87.00 4.03-87.67 4.30Q-88.34 4.57-89.17 4.57L-89.17 4.57Q-90.87 4.57-91.83 3.56Q-92.79 2.56-92.79 0.67L-92.79 0.67L-92.79-5.40L-91.46-5.40L-91.46 0.46Q-91.46 1.88-90.89 2.64Q-90.33 3.40-89.17 3.40L-89.17 3.40Q-87.98 3.40-87.39 2.65Q-86.80 1.91-86.80 0.46L-86.80 0.46ZM-77.59 4.40L-81.94-3.69L-81.94 4.40L-83.20 4.40L-83.20-5.40L-81.44-5.40L-77.11 2.75L-77.11-5.40L-75.85-5.40L-75.85 4.40L-77.59 4.40ZM-65.51 4.40L-65.51-3.71L-68.12 2.19L-69.44 2.19L-72.07-3.71L-72.07 4.40L-73.33 4.40L-73.33-5.40L-71.47-5.40L-68.75 0.80L-66.08-5.40L-64.18-5.40L-64.18 4.40L-65.51 4.40ZM-61.64 4.51L-62.78 4.05L-58.94-5.40L-57.48-5.40L-53.70 4.05L-54.92 4.54L-56.01 1.74L-60.55 1.74L-61.64 4.51ZM-58.28-4.09L-60.13 0.62L-56.45 0.62L-58.28-4.09ZM-46.69 4.40L-51.04-3.69L-51.04 4.40L-52.30 4.40L-52.30-5.40L-50.54-5.40L-46.21 2.75L-46.21-5.40L-44.95-5.40L-44.95 4.40L-46.69 4.40ZM-36.82 4.40L-41.17-3.69L-41.17 4.40L-42.43 4.40L-42.43-5.40L-40.67-5.40L-36.34 2.75L-36.34-5.40L-35.08-5.40L-35.08 4.40L-36.82 4.40ZM-32.56 4.40L-32.56-5.40L-26.68-5.40L-26.68-4.25L-31.23-4.25L-31.23-1.27L-27.31-1.27L-27.31-0.15L-31.23-0.15L-31.23 3.25L-26.68 3.25L-26.68 4.40L-32.56 4.40ZM-24.79 4.37L-24.79-5.37Q-24.14-5.44-23.51-5.48Q-22.88-5.51-22.06-5.51L-22.06-5.51Q-20.80-5.51-19.89-5.12Q-18.98-4.73-18.38-4.04Q-17.78-3.36-17.49-2.45Q-17.21-1.54-17.21-0.52L-17.21-0.52Q-17.21 0.51-17.50 1.42Q-17.79 2.34-18.40 3.03Q-19.01 3.71-19.96 4.11Q-20.90 4.51-22.22 4.51L-22.22 4.51Q-23.02 4.51-23.61 4.47Q-24.21 4.44-24.79 4.37L-24.79 4.37ZM-22.11-4.37L-22.11-4.37Q-22.51-4.37-22.85-4.35Q-23.18-4.32-23.46-4.30L-23.46-4.30L-23.46 3.28Q-23.17 3.32-22.85 3.33Q-22.53 3.35-22.18 3.35L-22.18 3.35Q-21.24 3.35-20.55 3.06Q-19.87 2.77-19.42 2.26Q-18.98 1.75-18.77 1.04Q-18.56 0.34-18.56-0.52L-18.56-0.52Q-18.56-1.27-18.77-1.97Q-18.98-2.66-19.42-3.20Q-19.85-3.74-20.52-4.05Q-21.20-4.37-22.11-4.37ZM-9.44 4.40L-12.10-5.08L-10.78-5.50L-8.57 2.98L-6.48-4.38L-4.82-4.38L-2.74 2.98L-0.55-5.46L0.69-5.08L-1.96 4.40L-3.61 4.40L-5.68-2.97L-7.78 4.40L-9.44 4.40ZM3.49 4.40L2.16 4.40L2.16-5.40L3.49-5.40L3.49 4.40ZM4.89-4.23L4.89-5.40L12.24-5.40L12.24-4.23L9.23-4.23L9.23 4.40L7.90 4.40L7.90-4.23L4.89-4.23ZM19.80 4.40L19.80-0.07L14.97-0.07L14.97 4.40L13.64 4.40L13.64-5.40L14.97-5.40L14.97-1.22L19.80-1.22L19.80-5.40L21.13-5.40L21.13 4.40L19.80 4.40ZM29.46 4.40L26.80-5.08L28.11-5.50L30.32 2.98L32.41-4.38L34.08-4.38L36.15 2.98L38.35-5.46L39.58-5.08L36.93 4.40L35.28 4.40L33.21-2.97L31.11 4.40L29.46 4.40ZM42.38 4.40L41.05 4.40L41.05-5.40L42.38-5.40L42.38 4.40ZM50.51 4.40L46.16-3.69L46.16 4.40L44.90 4.40L44.90-5.40L46.66-5.40L50.99 2.75L50.99-5.40L52.25-5.40L52.25 4.40L50.51 4.40ZM58.74 0.25L58.74-0.80L62.03-0.80L62.03 4.40L60.86 4.40L60.86 3.42Q60.37 3.85 59.67 4.21Q58.97 4.57 58.11 4.57L58.11 4.57Q57.26 4.57 56.55 4.23Q55.83 3.89 55.31 3.26Q54.80 2.63 54.50 1.74Q54.21 0.86 54.21-0.25L54.21-0.25Q54.21-1.43 54.51-2.40Q54.81-3.37 55.38-4.08Q55.96-4.79 56.79-5.18Q57.62-5.57 58.69-5.57L58.69-5.57Q59.61-5.57 60.32-5.35Q61.03-5.12 61.66-4.77L61.66-4.77L61.17-3.67Q60.58-3.99 59.98-4.20Q59.37-4.41 58.62-4.41L58.62-4.41Q57.96-4.41 57.40-4.14Q56.84-3.88 56.43-3.36Q56.03-2.84 55.80-2.08Q55.57-1.31 55.57-0.33L55.57-0.33Q55.57 0.55 55.78 1.24Q55.99 1.93 56.36 2.42Q56.74 2.90 57.27 3.15Q57.79 3.40 58.42 3.40L58.42 3.40Q58.81 3.40 59.16 3.31Q59.51 3.22 59.81 3.07Q60.10 2.93 60.35 2.75Q60.59 2.58 60.77 2.40L60.77 2.40L60.77 0.25L58.74 0.25ZM72.03 4.40L72.03-3.71L69.41 2.19L68.10 2.19L65.46-3.71L65.46 4.40L64.20 4.40L64.20-5.40L66.07-5.40L68.78 0.80L71.46-5.40L73.36-5.40L73.36 4.40L72.03 4.40ZM75.89 4.51L74.76 4.05L78.60-5.40L80.05-5.40L83.83 4.05L82.61 4.54L81.52 1.74L76.99 1.74L75.89 4.51ZM79.25-4.09L77.41 0.62L81.09 0.62L79.25-4.09ZM90.85 4.40L86.49-3.69L86.49 4.40L85.23 4.40L85.23-5.40L87.00-5.40L91.32 2.75L91.32-5.40L92.58-5.40L92.58 4.40L90.85 4.40Z"/></g>
<g transform="matrix(0.1286 0 0 0.1286 548.4174 515.2735)" id="197024">
<path style="stroke: none; stroke-width: 0; stroke-dasharray: none; stroke-linecap: butt; stroke-dashoffset: 0; stroke-linejoin: miter; stroke-miterlimit: 4; is-custom-font: none; font-file-url: none; fill: rgb(0,0,0); fill-rule: nonzero; opacity: 1;" vector-effect="non-scaling-stroke" transform=" translate(-256, -255.975)" d="M 392.11 398 a 6.07 6.07 0 0 0 0.93 -0.59 c 0.61 -0.58 60.65 -58.81 8.81 -114 c -21 -22.39 -76 -45.49 -134.13 -70 C 195.67 183.14 114 148.8 106.43 117.62 a 6.22 6.22 0 0 0 -5.89 -4.75 c -2.89 0.22 -5.33 1.78 -6.12 4.48 c -0.34 1.16 -32.86 116.9 66.68 163.12 A 107.6 107.6 0 0 0 181.27 287 c -0.76 9.89 -0.46 30.12 12.06 45.62 c 10 12.32 25.27 18.86 45.51 19.42 c 9.29 0.25 19.09 0.26 29.07 0.27 c 66.75 0.06 114 3 114.63 40.67 a 4 4 0 0 0 0.11 0.5 a 6 6 0 0 0 0.39 1.82 a 6.06 6.06 0 0 0 0.85 1.28 a 6.15 6.15 0 0 0 0.45 0.68 l 0 0 a 6.21 6.21 0 0 0 2 1.34 a 6.13 6.13 0 0 0 2.38 0.48 h 0.09 c 0.22 0 0.4 -0.11 0.61 -0.13 a 6.48 6.48 0 0 0 1.68 -0.37 A 7 7 0 0 0 392.11 398 Z M 103 137.22 c 24 30.54 90.35 58.42 159.93 87.69 c 56.91 23.93 110.66 46.54 129.88 67 c 21.41 22.81 20.16 46.14 13.15 64.15 c -1.51 -10.13 -6.54 -21.49 -17.8 -33.32 c -26.58 -27.93 -85.91 -33.72 -138.25 -38.82 c -33.74 -3.29 -65.61 -6.4 -83.55 -14.73 C 97.05 237 98.24 168.71 103 137.22 Z m 165 202.68 c -9.87 0 -19.56 0 -28.74 -0.27 c -16.4 -0.45 -28.56 -5.41 -36.13 -14.74 c -9.25 -11.41 -9.89 -26.86 -9.43 -35.33 c 16.43 2.92 35.38 4.82 55 6.73 c 50.18 4.9 107.06 10.45 130.45 35 c 17 17.88 16.4 33.84 12.67 44.36 C 377.77 340 319.82 340 267.92 339.9 Z" stroke-linecap="round"/>
</g>
<g transform="matrix(1 0 0 1 290.3946 543.027)" style="" id="907112">
		
<path xml:space="preserve" font-family="Abril Fatface" font-size="86" font-style="normal" font-weight="normal" style="stroke: none; stroke-width: 0; stroke-dasharray: none; stroke-linecap: butt; stroke-dashoffset: 0; stroke-linejoin: miter; stroke-miterlimit: 4; is-custom-font: none; font-file-url: none; fill: rgb(0,0,0); fill-rule: nonzero; opacity: 1; white-space: pre;" d="M-226.87-31.55L-226.87-33.18L-201.58-33.18Q-188.60-33.18-182.23-29.44Q-175.87-25.70-175.87-16.07L-175.87-16.07Q-175.87-5.41-183.61-1.36L-183.61-1.36Q-190.83 2.33-203.82 2.33L-203.82 2.33L-204.51 2.33L-204.51 25.38L-193.76 25.38L-193.76 27.02L-226.87 27.02L-226.87 25.38L-221.28 25.38L-221.28-31.55L-226.87-31.55ZM-202.19-31.55L-204.51-31.55L-204.51 0.70L-202.70 0.70Q-197.54 0.70-195.56-2.83Q-193.59-6.35-193.59-14.26L-193.59-14.26L-193.59-18.39Q-193.59-25.70-195.43-28.63Q-197.28-31.55-202.19-31.55L-202.19-31.55ZM-147.58 10.07L-147.58 10.07L-147.58 2.76Q-147.58-5.58-148.48-9.41Q-149.38-13.23-152.65-13.23L-152.65-13.23Q-154.54-13.23-155.70-12.16Q-156.86-11.08-157.38-8.59L-157.38-8.59Q-158.15-4.72-158.15 3.19L-158.15 3.19L-158.15 9.90Q-158.15 19.28-157.59 21.17Q-157.04 23.06-156.43 24.26L-156.43 24.26Q-155.49 26.33-152.74 26.33L-152.74 26.33Q-149.38 26.33-148.35 22.46L-148.35 22.46Q-147.58 19.71-147.58 10.07ZM-152.91 27.88Q-163.66 27.88-169.16 22.37Q-174.67 16.87-174.67 6.59Q-174.67-3.69-168.78-9.23Q-162.88-14.78-152.22-14.78Q-141.56-14.78-136.31-9.66Q-131.06-4.55-131.06 5.95L-131.06 5.95Q-131.06 27.88-152.91 27.88L-152.91 27.88ZM-98.64-12.37L-101.82-12.37L-101.82-13.92L-79.64-13.92L-79.64-12.37L-83.16-12.37L-75.42 16.61L-67.77-12.37L-73.70-12.37L-73.70-13.92L-62.09-13.92L-62.09-12.37L-65.70-12.37L-76.02 27.02L-87.81 27.02L-95.29 0.61L-103.37 27.02L-114.90 27.02L-127.62-12.37L-131.49-12.37L-131.49-13.92L-105.44-13.92L-105.44-12.37L-110.60-12.37L-102.68 16.87L-96.49-3.26L-98.64-12.37ZM-39.90 27.88Q-51.00 27.88-56.54 22.16Q-62.09 16.44-62.09 6.25Q-62.09-3.94-55.86-9.36Q-49.62-14.78-39.99-14.78L-39.99-14.78Q-20.47-14.78-21.24 4.83L-21.24 4.83L-45.49 4.83L-45.49 8.18Q-45.49 16.61-43.34 20.91Q-41.19 25.21-35.86 25.21L-35.86 25.21Q-25.89 25.21-22.79 14.55L-22.79 14.55L-21.24 14.80Q-22.88 21.00-27.13 24.44Q-31.39 27.88-39.90 27.88L-39.90 27.88ZM-45.41-1.11L-45.41 3.11L-36.55 3.11L-36.55-1.11Q-36.55-8.07-37.37-10.61Q-38.18-13.15-40.63-13.15Q-43.09-13.15-44.25-10.44Q-45.41-7.73-45.41-1.11L-45.41-1.11ZM10.58-11.51L10.58-11.51Q7.40-11.51 4.99-7.38Q2.58-3.26 2.58 2.42L2.58 2.42L2.58 25.47L8.69 25.47L8.69 27.02L-18.15 27.02L-18.15 25.47L-13.42 25.47L-13.42-12.37L-18.15-12.37L-18.15-13.92L2.58-13.92L2.58-5.66Q3.70-10.05 6.88-12.42Q10.06-14.78 14.10-14.78Q18.15-14.78 20.68-12.50Q23.22-10.22 23.22-6.05Q23.22-1.88 21.33 0.36Q19.44 2.59 15.52 2.59Q11.61 2.59 9.76 0.01Q7.91-2.57 9.29-7.13L9.29-7.13L12.38-7.13Q14.53-11.51 10.58-11.51ZM46.61 27.88Q35.52 27.88 29.97 22.16Q24.42 16.44 24.42 6.25Q24.42-3.94 30.66-9.36Q36.89-14.78 46.53-14.78L46.53-14.78Q66.05-14.78 65.27 4.83L65.27 4.83L41.02 4.83L41.02 8.18Q41.02 16.61 43.17 20.91Q45.32 25.21 50.65 25.21L50.65 25.21Q60.63 25.21 63.73 14.55L63.73 14.55L65.27 14.80Q63.64 21.00 59.38 24.44Q55.13 27.88 46.61 27.88L46.61 27.88ZM41.11-1.11L41.11 3.11L49.97 3.11L49.97-1.11Q49.97-8.07 49.15-10.61Q48.33-13.15 45.88-13.15Q43.43-13.15 42.27-10.44Q41.11-7.73 41.11-1.11L41.11-1.11ZM85.83 9.21Q85.83 18.24 86.77 21.21Q87.72 24.18 90.26 24.18Q92.79 24.18 94.64 21.94Q96.49 19.71 96.49 15.32L96.49 15.32L96.49-3.43Q96.49-7.13 95.03-9.71Q93.57-12.29 90.73-12.29Q87.89-12.29 86.86-8.50Q85.83-4.72 85.83 4.74L85.83 4.74L85.83 9.21ZM116.70 27.02L97.61 27.02L96.66 21.00Q93.74 27.88 84.80 27.88L84.80 27.88Q77.40 27.88 73.32 22.54Q69.23 17.21 69.23 6.63L69.23 6.63Q69.23-14.78 86.26-14.78L86.26-14.78Q93.83-14.78 96.23-10.57L96.23-10.57L96.23-35.94L90.99-35.94L90.99-37.48L112.49-37.48L112.49 25.47L116.70 25.47L116.70 27.02ZM165.81 3.88Q165.81-4.98 164.95-8.03Q164.09-11.08 161.59-11.08Q159.10-11.08 157.12-7.99Q155.14-4.89 155.14 0.53L155.14 0.53L155.14 16.52Q155.14 20.22 156.65 22.80Q158.15 25.38 160.95 25.38Q163.74 25.38 164.78 21.60Q165.81 17.81 165.81 8.35L165.81 8.35L165.81 3.88ZM134.42-37.48L155.14-37.48L155.14-7.38Q158.41-14.78 166.32-14.78L166.32-14.78Q182.41-14.78 182.41 6.63L182.41 6.63Q182.41 17.56 177.98 22.72Q173.55 27.88 164.69 27.88L164.69 27.88Q160.22 27.88 157.85 26.50Q155.49 25.12 154.63 21.94L154.63 21.94L154.03 27.02L134.42 27.02L134.42 25.47L139.15 25.47L139.15-35.94L134.42-35.94L134.42-37.48ZM186.36-12.37L182.84-12.37L182.84-13.92L207.78-13.92L207.78-12.37L203.13-12.37L212.51 16.18L222.48-12.37L216.72-12.37L216.72-13.92L228.85-13.92L228.85-12.37L224.55-12.37L208.46 33.98Q205.63 42.07 202.10 45.29Q198.57 48.52 193.50 48.52Q188.43 48.52 185.50 46.19Q182.58 43.87 182.58 40.26Q182.58 36.65 184.47 34.76Q186.36 32.86 189.46 32.86L189.46 32.86Q196.60 32.86 196.60 38.80L196.60 38.80Q196.60 40.09 196.08 41.89L196.08 41.89L193.07 41.89Q192.38 43.87 192.90 45.16Q193.41 46.45 195.22 46.45L195.22 46.45Q198.75 46.45 201.50 42.97Q204.25 39.49 206.74 32.35L206.74 32.35L208.64 27.02L201.07 27.02L186.36-12.37Z"/></g>
</svg>